<?xml version="1.0" standalone="no"?>
<!DOCTYPE svg PUBLIC "-//W3C//DTD SVG 1.1//EN" "http://www.w3.org/Graphics/SVG/1.1/DTD/svg11.dtd" >
<svg xmlns="http://www.w3.org/2000/svg" xmlns:xlink="http://www.w3.org/1999/xlink" version="1.1">
<metadata>
Created by FontForge 20161003 at Thu Mar  1 21:46:06 2018
 By www-data
Copyright Daniel Lyons 2015
</metadata>
<defs>
<font id="Irresistible-Hollywood" horiz-adv-x="455" >
  <font-face 
    font-family="Irresistible Hollywood"
    font-weight="400"
    font-stretch="normal"
    units-per-em="1024"
    panose-1="0 0 4 0 0 0 0 0 0 0"
    ascent="819"
    descent="-205"
    x-height="640"
    cap-height="640"
    bbox="0 -128 640 640"
    underline-thickness="51"
    underline-position="77"
    unicode-range="U+0020-007A"
  />
<missing-glyph horiz-adv-x="-56" 
d="M320 90v102h-102v-102h102zM421 209v102h-203v-102h203zM320 328v102h-102v-102h102zM421 447v101h-101q-43 0 -72 -29q-30 -31 -30 -72h203zM0 0v640h640v-640h-640z" />
    <glyph glyph-name=".notdef" horiz-adv-x="-56" 
d="M320 90v102h-102v-102h102zM421 209v102h-203v-102h203zM320 328v102h-102v-102h102zM421 447v101h-101q-43 0 -72 -29q-30 -31 -30 -72h203zM0 0v640h640v-640h-640z" />
    <glyph glyph-name="glyph1" horiz-adv-x="-56" 
 />
    <glyph glyph-name="glyph2" horiz-adv-x="128" 
 />
    <glyph glyph-name="space" unicode=" " horiz-adv-x="199" 
 />
    <glyph glyph-name="exclam" unicode="!" horiz-adv-x="199" 
d="M64 0q-27 0 -46 18q-18 19 -18 46q0 26 18 45q19 19 46 19q26 0 45 -19t19 -45q0 -27 -19 -46q-19 -18 -45 -18v0zM0 192v448h128v-448h-128z" />
    <glyph glyph-name="quotedbl" unicode="&#x22;" 
d="M0 384v256h128v-256h-128zM256 384v256h128v-256h-128z" />
    <glyph glyph-name="quotesingle" unicode="'" horiz-adv-x="199" 
d="M0 384v256h128v-256h-128z" />
    <glyph glyph-name="plus" unicode="+" 
d="M128 128v128h-128v128h128v128h128v-128h128v-128h-128v-128h-128z" />
    <glyph glyph-name="comma" unicode="," horiz-adv-x="199" 
d="M0 -128v64q26 0 45 19t19 45q-27 0 -46 18q-18 19 -18 46q0 26 18 45q19 19 46 19q26 0 45 -19t19 -45v-64q0 -52 -38 -90t-90 -38v0z" />
    <glyph glyph-name="hyphen" unicode="-" 
d="M0 256v128h384v-128h-384z" />
    <glyph glyph-name="period" unicode="." horiz-adv-x="199" 
d="M64 0q-27 0 -46 18q-18 19 -18 46q0 26 18 45q19 19 46 19q26 0 45 -19t19 -45q0 -27 -19 -46q-19 -18 -45 -18v0z" />
    <glyph glyph-name="zero" unicode="0" 
d="M192 128q26 0 45 18q19 19 19 46v256q0 26 -19 45t-45 19q-27 0 -46 -19q-18 -19 -18 -45v-256q0 -27 18 -46q19 -18 46 -18v0zM128 0q-54 0 -91 37q-37 38 -37 91v384q0 53 37 90q38 38 91 38h128q53 0 90 -38q38 -38 38 -90v-384q0 -54 -38 -91t-90 -37h-128z" />
    <glyph glyph-name="one" unicode="1" horiz-adv-x="327" 
d="M128 0v384h-128v128q52 0 90 37q38 38 38 91h128v-640h-128z" />
    <glyph glyph-name="two" unicode="2" 
d="M0 0v256q0 52 37 90t91 38h64q26 0 45 18q19 19 19 46q0 26 -19 45t-45 19q-27 0 -46 -19q-18 -19 -18 -45h-128v64q0 52 37 90t91 38h128q52 0 90 -38q38 -37 38 -90v-128q0 -53 -38 -91q-37 -37 -90 -37h-64q-27 0 -46 -19q-18 -19 -18 -45v-64h256v-128h-384z" />
    <glyph glyph-name="three" unicode="3" 
d="M128 0q-54 0 -91 37q-37 38 -37 91v64h128q0 -27 18 -46q19 -18 46 -18q26 0 45 18q19 19 19 46q0 26 -19 45t-45 19h-64v128h64q26 0 45 18q19 19 19 46q0 26 -19 45t-45 19q-27 0 -46 -19q-18 -19 -18 -45h-128v64q0 52 37 90t91 38h128q52 0 90 -38q38 -37 38 -90
v-128q0 -27 -19 -46q-19 -18 -45 -18q26 0 45 -19t19 -45v-128q0 -54 -38 -91t-90 -37h-128z" />
    <glyph glyph-name="four" unicode="4" 
d="M256 256v256l-128 -256h128zM256 0v128h-256v128l192 384h192v-640h-128z" />
    <glyph glyph-name="five" unicode="5" 
d="M128 0q-54 0 -91 37q-37 38 -37 91v64h128q0 -27 18 -46q19 -18 46 -18q26 0 45 18q19 19 19 46q0 26 -19 45t-45 19h-192v384h384v-128h-256v-128h128q53 0 90 -38q38 -38 38 -90v-128q0 -54 -38 -91t-90 -37h-128z" />
    <glyph glyph-name="six" unicode="6" 
d="M192 128q26 0 45 18q19 19 19 46q0 26 -19 45q-17 17 -41 18h-9q-24 -1 -41 -18q-18 -19 -18 -45q0 -27 18 -46q19 -18 46 -18v0zM128 0q-54 0 -91 37q-37 38 -37 91v384q0 53 37 90q38 38 91 38h128q53 0 90 -38q38 -38 38 -90v-64h-128q0 26 -19 45t-45 19
q-27 0 -46 -19q-18 -19 -18 -45v-129q0 27 18 46q19 19 46 19h64q53 0 90 -38q38 -38 38 -90v-128q0 -54 -38 -91t-90 -37h-128z" />
    <glyph glyph-name="seven" unicode="7" 
d="M0 0l256 512h-256v128h384v-128l-256 -512h-128z" />
    <glyph glyph-name="eight" unicode="8" 
d="M192 128q26 0 45 18q19 19 19 46q0 26 -19 45t-45 19q-27 0 -46 -19q-18 -19 -18 -45q0 -27 18 -46q19 -18 46 -18v0zM192 384q26 0 45 18q19 19 19 46q0 26 -19 45t-45 19q-27 0 -46 -19q-18 -19 -18 -45q0 -27 18 -46q19 -18 46 -18v0zM128 0q-53 0 -91 37
q-37 37 -37 91v128q0 26 18 45q19 19 46 19q-27 0 -46 18q-18 19 -18 46v128q0 52 37 90t91 38h128q53 0 90 -38q38 -38 38 -90v-128q0 -27 -19 -46q-19 -18 -45 -18q26 0 45 -19t19 -45v-128q0 -54 -38 -91t-90 -37h-128z" />
    <glyph glyph-name="nine" unicode="9" 
d="M196 384q24 1 41 18q19 19 19 46q0 26 -19 45t-45 19q-27 0 -46 -19q-18 -19 -18 -45q0 -27 18 -46q17 -17 41 -18h9zM128 0q-54 0 -91 37q-37 38 -37 91v64h128q0 -27 18 -46q19 -18 46 -18q26 0 45 18q19 19 19 46v128q0 -27 -19 -46q-19 -18 -45 -18h-64q-54 0 -91 37
q-37 38 -37 91v128q0 53 37 90q38 38 91 38h128q53 0 90 -38q38 -38 38 -90v-384q0 -54 -38 -91t-90 -37h-128z" />
    <glyph glyph-name="colon" unicode=":" horiz-adv-x="199" 
d="M64 0q-27 0 -46 18q-18 19 -18 46q0 26 18 45q19 19 46 19q26 0 45 -19t19 -45q0 -27 -19 -46q-19 -18 -45 -18v0zM64 384q-27 0 -46 18q-18 19 -18 46q0 26 18 45q19 19 46 19q26 0 45 -19t19 -45q0 -27 -19 -46q-19 -18 -45 -18v0z" />
    <glyph glyph-name="semicolon" unicode=";" horiz-adv-x="199" 
d="M0 -128v64q26 0 45 19t19 45q-27 0 -46 18q-18 19 -18 46q0 26 18 45q19 19 46 19q26 0 45 -19t19 -45v-64q0 -52 -38 -90t-90 -38v0zM64 384q-27 0 -46 18q-18 19 -18 46q0 26 18 45q19 19 46 19q26 0 45 -19t19 -45q0 -27 -19 -46q-19 -18 -45 -18v0z" />
    <glyph glyph-name="question" unicode="?" 
d="M192 0q-27 0 -46 18q-18 19 -18 46q0 26 18 45q19 19 46 19q26 0 45 -19t19 -45q0 -27 -19 -46q-19 -18 -45 -18v0zM128 192v127q0 27 18 46q19 19 46 19q26 0 45 18q19 19 19 46q0 26 -19 45t-45 19q-27 0 -46 -19q-18 -19 -18 -45h-128v64q0 52 37 90t91 38h128
q52 0 90 -38q38 -37 38 -90v-128q0 -53 -38 -91q-37 -37 -90 -37v-64h-128z" />
    <glyph glyph-name="A" unicode="A" 
d="M256 320v64l-64 128l-64 -128v-64h128zM0 0v384l128 256h128l128 -256v-384h-128v192h-128v-192h-128z" />
    <glyph glyph-name="B" unicode="B" 
d="M192 128q26 0 45 18q19 19 19 46q0 26 -19 45t-45 19h-64v-128h64zM192 384q26 0 45 18q19 19 19 46q0 26 -19 45t-45 19h-64v-128h64zM0 0v640h256q53 0 90 -38q38 -38 38 -90v-128q0 -27 -19 -46q-19 -18 -45 -18q26 0 45 -19t19 -45v-128q0 -54 -38 -91t-90 -37h-256z
" />
    <glyph glyph-name="C" unicode="C" 
d="M128 0q-54 0 -91 37q-37 38 -37 91v384q0 53 37 90q38 38 91 38h128q53 0 90 -38q38 -38 38 -90v-128h-128v64q0 26 -19 45t-45 19q-27 0 -46 -19q-18 -19 -18 -45v-256q0 -27 18 -46q19 -18 46 -18q26 0 45 18q19 19 19 46v64h128v-128q0 -54 -38 -91t-90 -37h-128z" />
    <glyph glyph-name="D" unicode="D" 
d="M192 128q26 0 45 18q19 19 19 46v256q0 26 -19 45t-45 19h-64v-384h64zM0 0v640h256q53 0 90 -38q38 -38 38 -90v-384q0 -54 -38 -91t-90 -37h-256z" />
    <glyph glyph-name="E" unicode="E" 
d="M0 0v640h384v-128h-256v-128h256v-128h-256v-128h256v-128h-384z" />
    <glyph glyph-name="F" unicode="F" 
d="M0 0v640h384v-128h-256v-128h256v-128h-256v-256h-128z" />
    <glyph glyph-name="G" unicode="G" 
d="M128 0q-54 0 -91 37q-37 38 -37 91v384q0 53 37 90q38 38 91 38h128q53 0 90 -38q38 -38 38 -90v-64h-128q0 26 -19 45t-45 19q-27 0 -46 -19q-18 -19 -18 -45v-256q0 -27 18 -46q19 -18 46 -18q26 0 45 18q19 19 19 46v64h-64v128h192v-256q0 -54 -38 -91t-90 -37h-128z
" />
    <glyph glyph-name="H" unicode="H" 
d="M0 0v640h128v-256h128v256h128v-640h-128v256h-128v-256h-128z" />
    <glyph glyph-name="I" unicode="I" horiz-adv-x="199" 
d="M0 0v640h128v-640h-128z" />
    <glyph glyph-name="J" unicode="J" 
d="M128 0q-54 0 -91 37q-37 38 -37 91v128h128v-64q0 -27 18 -46q19 -18 46 -18q26 0 45 18q19 19 19 46v320h-128v128h256v-512q0 -54 -38 -91t-90 -37h-128z" />
    <glyph glyph-name="K" unicode="K" 
d="M0 0v640h128v-256h64q26 0 45 18q19 19 19 46v192h128v-256q0 -27 -19 -46q-19 -18 -45 -18q26 0 45 -19t19 -45v-256h-128v192q0 26 -19 45t-45 19h-64v-256h-128z" />
    <glyph glyph-name="L" unicode="L" 
d="M0 0v640h128v-512h256v-128h-384z" />
    <glyph glyph-name="M" unicode="M" horiz-adv-x="583" 
d="M0 0v640h192l64 -128l64 128h192v-640h-128v512l-64 -128h-128l-64 128v-512h-128z" />
    <glyph glyph-name="N" unicode="N" 
d="M0 0v640h128l128 -256v256h128v-640h-128l-128 256v-256h-128z" />
    <glyph glyph-name="O" unicode="O" 
d="M192 128q26 0 45 18q19 19 19 46v256q0 26 -19 45t-45 19q-27 0 -46 -19q-18 -19 -18 -45v-256q0 -27 18 -46q19 -18 46 -18v0zM128 0q-54 0 -91 37q-37 38 -37 91v384q0 53 37 90q38 38 91 38h128q53 0 90 -38q38 -38 38 -90v-384q0 -54 -38 -91t-90 -37h-128z" />
    <glyph glyph-name="P" unicode="P" 
d="M192 384q26 0 45 18q19 19 19 46q0 26 -19 45t-45 19h-64v-128h64zM0 0v640h256q53 0 90 -38q38 -38 38 -90v-128q0 -54 -38 -91t-90 -37h-128v-256h-128z" />
    <glyph glyph-name="Q" unicode="Q" 
d="M192 128q26 0 45 18q19 19 19 46v256q0 26 -19 45t-45 19q-27 0 -46 -19q-18 -19 -18 -45v-256q0 -27 18 -46q19 -18 46 -18v0zM256 -128q-54 0 -91 38t-37 90q-54 0 -91 37q-37 38 -37 91v384q0 53 37 90q38 38 91 38h128q53 0 90 -38q38 -38 38 -90v-384q0 -54 -38 -91
t-90 -37h128v-128h-128z" />
    <glyph glyph-name="R" unicode="R" 
d="M192 384q26 0 45 18q19 19 19 46q0 26 -19 45t-45 19h-64v-128h64zM0 0v640h256q53 0 90 -38q38 -38 38 -90v-128q0 -27 -19 -46q-19 -18 -45 -18q26 0 45 -19t19 -45v-256h-128v192q0 26 -19 45t-45 19h-64v-256h-128z" />
    <glyph glyph-name="S" unicode="S" 
d="M128 0q-54 0 -91 37q-37 38 -37 91v64h128q0 -27 18 -46q19 -18 46 -18q26 0 45 18q19 19 19 46q0 26 -19 45t-45 19h-64q-54 0 -91 37q-37 38 -37 91v128q0 53 37 90q38 38 91 38h128q53 0 90 -38q38 -38 38 -90v-64h-128q0 26 -19 45t-45 19q-27 0 -46 -19
q-18 -19 -18 -45q0 -27 18 -46q19 -18 46 -18h64q53 0 90 -38q38 -38 38 -90v-128q0 -54 -38 -91t-90 -37h-128z" />
    <glyph glyph-name="T" unicode="T" 
d="M128 0v512h-128v128h384v-128h-128v-512h-128z" />
    <glyph glyph-name="U" unicode="U" 
d="M128 0q-54 0 -91 37q-37 38 -37 91v512h128v-448q0 -27 18 -46q19 -18 46 -18q26 0 45 18q19 19 19 46v448h128v-512q0 -54 -38 -91t-90 -37h-128z" />
    <glyph glyph-name="V" unicode="V" 
d="M128 0l-128 256v384h128v-384l64 -128l64 128v384h128v-384l-128 -256h-128z" />
    <glyph glyph-name="W" unicode="W" horiz-adv-x="711" 
d="M128 0l-128 256v384h128v-384l64 -128l64 128v384h128v-384l64 -128l64 128v384h128v-384l-128 -256h-128l-64 128l-64 -128h-128z" />
    <glyph glyph-name="X" unicode="X" 
d="M0 0v256q0 26 18 45q19 19 46 19q-27 0 -46 18q-18 19 -18 46v256h128v-192q0 -27 18 -46q19 -18 46 -18q26 0 45 18q19 19 19 46v192h128v-256q0 -27 -19 -46q-19 -18 -45 -18q26 0 45 -19t19 -45v-256h-128v192q0 26 -19 45t-45 19q-27 0 -46 -19q-18 -19 -18 -45v-192
h-128z" />
    <glyph glyph-name="Y" unicode="Y" 
d="M128 0v256q-54 0 -91 37q-37 38 -37 91v256h128v-192q0 -27 18 -46q19 -18 46 -18q26 0 45 18q19 19 19 46v192h128v-256q0 -54 -38 -91t-90 -37v-256h-128z" />
    <glyph glyph-name="Z" unicode="Z" 
d="M0 0v128l192 384h-192v128h384v-128l-192 -384h192v-128h-384z" />
    <glyph glyph-name="a" unicode="a" 
d="M192 128q26 0 45 18q19 19 19 46v64h-64q-27 0 -46 -19q-18 -19 -18 -45q0 -27 18 -46q19 -18 46 -18v0zM128 0q-54 0 -91 37q-37 38 -37 91v128q0 53 37 90q38 38 91 38h128v64q0 26 -19 45t-45 19q-27 0 -46 -19q-18 -19 -18 -45h-128v64q0 53 37 90q38 38 91 38h128
q53 0 90 -38q38 -38 38 -90v-512h-128v64q0 -27 -19 -46q-19 -18 -45 -18h-64z" />
    <glyph glyph-name="b" unicode="b" 
d="M192 128q26 0 45 18q19 19 19 46q0 26 -19 45t-45 19h-64v-128h64zM192 384q26 0 45 18q19 19 19 46q0 26 -19 45t-45 19h-64v-128h64zM0 0v640h256q53 0 90 -38q38 -38 38 -90v-128q0 -27 -19 -46q-19 -18 -45 -18q26 0 45 -19t19 -45v-128q0 -54 -38 -91t-90 -37h-256z
" />
    <glyph glyph-name="c" unicode="c" 
d="M128 0q-54 0 -91 37q-37 38 -37 91v384q0 53 37 90q38 38 91 38h128q53 0 90 -38q38 -38 38 -90v-128h-128v64q0 26 -19 45t-45 19q-27 0 -46 -19q-18 -19 -18 -45v-256q0 -27 18 -46q19 -18 46 -18q26 0 45 18q19 19 19 46v64h128v-128q0 -54 -38 -91t-90 -37h-128z" />
    <glyph glyph-name="d" unicode="d" 
d="M192 128q26 0 45 18q19 19 19 46v256q0 26 -19 45t-45 19h-64v-384h64zM0 0v640h256q53 0 90 -38q38 -38 38 -90v-384q0 -54 -38 -91t-90 -37h-256z" />
    <glyph glyph-name="e" unicode="e" 
d="M256 384v64q0 26 -19 45t-45 19q-27 0 -46 -19q-18 -19 -18 -45v-64h128zM128 0q-54 0 -91 37q-37 38 -37 91v384q0 53 37 90q38 38 91 38h128q53 0 90 -38q38 -38 38 -90v-256h-256v-64q0 -27 18 -46q19 -18 46 -18q26 0 45 18q19 19 19 46h128v-64q0 -54 -38 -91
t-90 -37h-128z" />
    <glyph glyph-name="f" unicode="f" 
d="M0 0v640h384v-128h-256v-128h256v-128h-256v-256h-128z" />
    <glyph glyph-name="g" unicode="g" 
d="M128 0q-54 0 -91 37q-37 38 -37 91v384q0 53 37 90q38 38 91 38h128q53 0 90 -38q38 -38 38 -90v-64h-128q0 26 -19 45t-45 19q-27 0 -46 -19q-18 -19 -18 -45v-256q0 -27 18 -46q19 -18 46 -18q26 0 45 18q19 19 19 46v64h-64v128h192v-256q0 -54 -38 -91t-90 -37h-128z
" />
    <glyph glyph-name="h" unicode="h" 
d="M0 0v640h128v-256h128v256h128v-640h-128v256h-128v-256h-128z" />
    <glyph glyph-name="i" unicode="i" horiz-adv-x="199" 
d="M0 0v448h128v-448h-128zM0 512v128h128v-128h-128z" />
    <glyph glyph-name="j" unicode="j" 
d="M128 0q-54 0 -91 37q-37 38 -37 91v128h128v-64q0 -27 18 -46q19 -18 46 -18q26 0 45 18q19 19 19 46v320h-128v128h256v-512q0 -54 -38 -91t-90 -37h-128z" />
    <glyph glyph-name="k" unicode="k" 
d="M0 0v640h128v-256h64q26 0 45 18q19 19 19 46v192h128v-256q0 -27 -19 -46q-19 -18 -45 -18q26 0 45 -19t19 -45v-256h-128v192q0 26 -19 45t-45 19h-64v-256h-128z" />
    <glyph glyph-name="l" unicode="l" 
d="M0 0v640h128v-512h256v-128h-384z" />
    <glyph glyph-name="m" unicode="m" horiz-adv-x="583" 
d="M0 0v640h192l64 -128l64 128h192v-640h-128v512l-64 -128h-128l-64 128v-512h-128z" />
    <glyph glyph-name="n" unicode="n" 
d="M0 0v640h128l128 -256v256h128v-640h-128l-128 256v-256h-128z" />
    <glyph glyph-name="o" unicode="o" 
d="M192 128q26 0 45 18q19 19 19 46v256q0 26 -19 45t-45 19q-27 0 -46 -19q-18 -19 -18 -45v-256q0 -27 18 -46q19 -18 46 -18v0zM128 0q-54 0 -91 37q-37 38 -37 91v384q0 53 37 90q38 38 91 38h128q53 0 90 -38q38 -38 38 -90v-384q0 -54 -38 -91t-90 -37h-128z" />
    <glyph glyph-name="p" unicode="p" 
d="M192 384q26 0 45 18q19 19 19 46q0 26 -19 45t-45 19h-64v-128h64zM0 0v640h256q53 0 90 -38q38 -38 38 -90v-128q0 -54 -38 -91t-90 -37h-128v-256h-128z" />
    <glyph glyph-name="q" unicode="q" 
d="M192 128q26 0 45 18q19 19 19 46v256q0 26 -19 45t-45 19q-27 0 -46 -19q-18 -19 -18 -45v-256q0 -27 18 -46q19 -18 46 -18v0zM256 -128q-54 0 -91 38t-37 90q-54 0 -91 37q-37 38 -37 91v384q0 53 37 90q38 38 91 38h128q53 0 90 -38q38 -38 38 -90v-384q0 -54 -38 -91
t-90 -37h128v-128h-128z" />
    <glyph glyph-name="r" unicode="r" 
d="M192 384q26 0 45 18q19 19 19 46q0 26 -19 45t-45 19h-64v-128h64zM0 0v640h256q53 0 90 -38q38 -38 38 -90v-128q0 -27 -19 -46q-19 -18 -45 -18q26 0 45 -19t19 -45v-256h-128v192q0 26 -19 45t-45 19h-64v-256h-128z" />
    <glyph glyph-name="s" unicode="s" 
d="M128 0q-54 0 -91 37q-37 38 -37 91v64h128q0 -27 18 -46q19 -18 46 -18q26 0 45 18q19 19 19 46q0 26 -19 45t-45 19h-64q-54 0 -91 37q-37 38 -37 91v128q0 53 37 90q38 38 91 38h128q53 0 90 -38q38 -38 38 -90v-64h-128q0 26 -19 45t-45 19q-27 0 -46 -19
q-18 -19 -18 -45q0 -27 18 -46q19 -18 46 -18h64q53 0 90 -38q38 -38 38 -90v-128q0 -54 -38 -91t-90 -37h-128z" />
    <glyph glyph-name="t" unicode="t" 
d="M128 0v512h-128v128h384v-128h-128v-512h-128z" />
    <glyph glyph-name="u" unicode="u" 
d="M128 0q-54 0 -91 37q-37 38 -37 91v512h128v-448q0 -27 18 -46q19 -18 46 -18q26 0 45 18q19 19 19 46v448h128v-640h-128v64q0 -27 -19 -46q-19 -18 -45 -18h-64z" />
    <glyph glyph-name="v" unicode="v" 
d="M128 0l-128 256v384h128v-384l64 -128l64 128v384h128v-384l-128 -256h-128z" />
    <glyph glyph-name="w" unicode="w" horiz-adv-x="711" 
d="M128 0l-128 256v384h128v-384l64 -128l64 128v384h128v-384l64 -128l64 128v384h128v-384l-128 -256h-128l-64 128l-64 -128h-128z" />
    <glyph glyph-name="x" unicode="x" 
d="M0 0v256q0 26 18 45q19 19 46 19q-27 0 -46 18q-18 19 -18 46v256h128v-192q0 -27 18 -46q19 -18 46 -18q26 0 45 18q19 19 19 46v192h128v-256q0 -27 -19 -46q-19 -18 -45 -18q26 0 45 -19t19 -45v-256h-128v192q0 26 -19 45t-45 19q-27 0 -46 -19q-18 -19 -18 -45v-192
h-128z" />
    <glyph glyph-name="y" unicode="y" 
d="M128 0q-54 0 -91 37q-37 38 -37 91v64h128q0 -27 18 -46q19 -18 46 -18q26 0 45 18q19 19 19 46v128q0 -27 -19 -46q-19 -18 -45 -18h-64q-54 0 -91 37q-37 38 -37 91v256h128v-192q0 -27 18 -46q19 -18 46 -18q26 0 45 18q19 19 19 46v192h128v-512q0 -54 -38 -91
t-90 -37h-128z" />
    <glyph glyph-name="z" unicode="z" 
d="M0 0v128l192 384h-192v128h384v-128l-192 -384h192v-128h-384z" />
  </font>
</defs>
</svg>
